<svg width="18" height="18" viewBox="0 0 18 18" fill="none" xmlns="http://www.w3.org/2000/svg">
<path d="M8.99984 17.3332C4.39734 17.3332 0.666504 13.6023 0.666504 8.99984C0.666504 4.39734 4.39734 0.666504 8.99984 0.666504C13.6023 0.666504 17.3332 4.39734 17.3332 8.99984C17.3332 13.6023 13.6023 17.3332 8.99984 17.3332ZM8.99984 11.4998C8.5396 11.4998 8.1665 11.8729 8.1665 12.3332C8.1665 12.7934 8.5396 13.1665 8.99984 13.1665C9.46008 13.1665 9.83317 12.7934 9.83317 12.3332C9.83317 11.8729 9.46008 11.4998 8.99984 11.4998ZM8.99984 4.83317C8.5396 4.83317 8.1665 5.20627 8.1665 5.6665V8.99984C8.1665 9.46008 8.5396 9.83317 8.99984 9.83317C9.46008 9.83317 9.83317 9.46008 9.83317 8.99984V5.6665C9.83317 5.20627 9.46008 4.83317 8.99984 4.83317Z" fill="#FF2121"/>
</svg>
