<svg width="24" height="22" viewBox="0 0 24 22" fill="none" xmlns="http://www.w3.org/2000/svg">
<path d="M17.8817 18.2971C16.1229 19.4126 14.0824 20.0034 11.9997 20.0001C6.60766 20.0001 1.12166 16.1201 0.180664 11.0001C0.610694 8.67078 2.78229 6.54296 4.52066 4.93407L1.39166 1.80807L2.80666 0.393066L22.6057 20.1931L21.1907 21.6071L17.8817 18.2971ZM5.93466 6.35007C4.57567 7.58566 2.62898 9.20885 2.22266 11.0001C2.53496 12.3665 3.99963 14.0001 4.99963 15.0001C6.0448 16.0452 7.07729 16.6625 8.35922 17.2294C9.64114 17.7963 11.0377 18.0561 12.4378 17.9882C13.8378 17.9203 15.2026 17.5264 16.4237 16.8381L14.3957 14.8101C13.5324 15.3539 12.5099 15.5882 11.4959 15.4745C10.4819 15.3608 9.53671 14.906 8.81523 14.1845C8.09376 13.463 7.63889 12.5178 7.52523 11.5038C7.41156 10.4899 7.64585 9.46738 8.18966 8.60407L5.93466 6.35007ZM20.8067 15.5921L19.3757 14.1621C20.0441 13.2094 21.5201 12.1353 21.7767 11.0001C21.5049 9.80979 20.4996 8.50006 19.4996 7.50006C18.4996 6.50006 17.6435 5.88379 16.5935 5.26067C15.5436 4.63755 14.378 4.23443 13.1674 4.07583C11.9568 3.91723 10.7267 4.00645 9.55166 4.33807L7.97366 2.76007C9.22066 2.27007 10.5797 2.00007 11.9997 2.00007C17.3917 2.00007 22.8777 5.88007 23.8187 11.0001C23.5122 12.6658 21.8235 14.2376 20.8067 15.5921ZM11.7227 6.50807C12.3592 6.46873 12.9968 6.56513 13.5932 6.79088C14.1896 7.01663 14.7313 7.36658 15.1822 7.81752C15.6332 8.26846 15.9831 8.81009 16.2088 9.40652C16.4346 10.003 16.531 10.6406 16.4917 11.2771L11.7227 6.50807Z" fill="#404040"/>
</svg>
