<svg width="24" height="18" viewBox="0 0 24 18" fill="none" xmlns="http://www.w3.org/2000/svg">
<path d="M12.0002 0C17.3922 0 22.8782 3.88 23.8192 9C22.8792 14.12 17.3922 18 12.0002 18C6.60815 18 1.12215 14.12 0.181152 9C1.12115 3.88 6.60815 0 12.0002 0ZM12.0002 16C14.0396 15.9996 16.0185 15.3068 17.613 14.0352C19.2075 12.7635 21.3231 10.9883 21.7772 9C21.3214 7.0133 19.2051 5.24 17.6108 3.97003C16.0165 2.70005 14.0385 2.00853 12.0002 2.00853C9.96185 2.00853 7.98384 2.70005 6.38953 3.97003C4.79521 5.24 2.67892 7.0133 2.22315 9C2.67725 10.9883 4.79283 12.7635 6.3873 14.0352C7.98177 15.3068 9.96068 15.9996 12.0002 16ZM12.0002 13.5C10.8067 13.5 9.66209 13.0259 8.81817 12.182C7.97426 11.3381 7.50015 10.1935 7.50015 9C7.50015 7.80653 7.97426 6.66193 8.81817 5.81802C9.66209 4.97411 10.8067 4.5 12.0002 4.5C13.1936 4.5 14.3382 4.97411 15.1821 5.81802C16.026 6.66193 16.5002 7.80653 16.5002 9C16.5002 10.1935 16.026 11.3381 15.1821 12.182C14.3382 13.0259 13.1936 13.5 12.0002 13.5Z" fill="#404040"/>
</svg>
