<svg width="18" height="18" viewBox="0 0 18 18" fill="none" xmlns="http://www.w3.org/2000/svg">
<path d="M8.99984 17.3332C4.39734 17.3332 0.666504 13.6023 0.666504 8.99984C0.666504 4.39734 4.39734 0.666504 8.99984 0.666504C13.6023 0.666504 17.3332 4.39734 17.3332 8.99984C17.3332 13.6023 13.6023 17.3332 8.99984 17.3332ZM7.2404 12.169C7.56585 12.4944 8.09352 12.4944 8.41895 12.1689L13.1323 7.45495C13.4576 7.12955 13.4576 6.60203 13.1322 6.27667C12.8068 5.95126 12.2792 5.95128 11.9539 6.27672L7.8297 10.4016L6.06136 8.63329C5.73598 8.3079 5.20842 8.3079 4.88303 8.63329C4.55764 8.95867 4.55764 9.48623 4.88303 9.81162L7.2404 12.169Z" fill="#1FC24E"/>
</svg>
